<svg id="visual" viewBox="0 0 900 600" width="900" height="600" xmlns="http://www.w3.org/2000/svg" xmlns:xlink="http://www.w3.org/1999/xlink" version="1.1"><rect x="0" y="0" width="900" height="600" fill="#fff"></rect><path d="M0 110L21.5 105.5C43 101 86 92 128.8 81C171.7 70 214.3 57 257.2 61.8C300 66.7 343 89.3 385.8 89.8C428.7 90.3 471.3 68.7 514.2 71.3C557 74 600 101 642.8 112.3C685.7 123.7 728.3 119.3 771.2 113.8C814 108.3 857 101.7 878.5 98.3L900 95L900 0L878.5 0C857 0 814 0 771.2 0C728.3 0 685.7 0 642.8 0C600 0 557 0 514.2 0C471.3 0 428.7 0 385.8 0C343 0 300 0 257.2 0C214.3 0 171.7 0 128.8 0C86 0 43 0 21.5 0L0 0Z" fill="#059668" stroke-linecap="round" stroke-linejoin="miter"></path></svg>